<svg width="103" height="145" viewBox="0 0 103 145" fill="none" xmlns="http://www.w3.org/2000/svg">
<path d="M10.7183 131.724L1.63969 29.8972H100.732L91.6436 131.708L51.1234 142.941L10.7183 131.724Z" stroke="white" stroke-width="3"/>
<path d="M24.0925 0H39.6147V6.49111H30.5836V12.9822H39.6147V19.4733H24.0925V0Z" fill="white"/>
<path d="M42.7191 0H58.2413V5.64444H49.2102V6.77333H58.2413V19.7556H42.7191V13.8289H51.7502V12.7H42.7191V0Z" fill="white"/>
<path d="M61.3458 0H76.868V5.64444H67.8369V6.77333H76.868V19.7556H61.3458V13.8289H70.3769V12.7H61.3458V0Z" fill="white"/>
<path d="M20.6923 51.2572H81.6055L76.0131 113.875L51.1233 120.773L26.2763 113.876L24.7188 96.4207H34.5721L35.3625 105.275L35.4555 106.317L36.4655 106.59L50.7386 110.444L51.1268 110.549L51.5154 110.445L51.5272 110.442L52.6415 110.146V110.141L65.8261 106.582L66.836 106.309L66.9292 105.267L68.4168 88.6462L68.563 87.0125H66.9228L23.878 87.0125L22.9982 77.1968L68.0342 77.1968L69.4068 77.1968L69.5283 75.8296L70.6945 62.706L70.8395 61.0732H69.2003H21.5846L20.6923 51.2572Z" stroke="white" stroke-width="3"/>
</svg>
