<svg width="142" height="142" viewBox="0 0 142 142" fill="none" xmlns="http://www.w3.org/2000/svg">
<g clip-path="url(#clip0)">
<path d="M30.064 0H36.4429V6.32344H42.3226V0H48.7015V19.1367H42.3226V12.7578H36.4984V19.1367H30.064V0ZM57.1328 6.37891H51.5027V0H69.1695V6.37891H63.5117V19.1367H57.1328V6.37891ZM71.9707 0H78.6546L82.7593 6.73945L86.864 0H93.548V19.1367H87.1691V9.65156L82.7039 16.5297L78.2386 9.65156V19.1367H71.9707V0ZM96.7097 0H103.089V12.8133H112.13V19.1367H96.7097" fill="white"/>
<path d="M31.2441 129.461L22.3295 29.4008H71H119.671L110.756 129.405L70.9167 140.444L31.2441 129.461Z" stroke="white" stroke-width="3"/>
<path d="M54.3594 75.8836H98.5638L95.338 111.858L70.9709 118.155L46.5509 111.857L45.0172 94.7707H54.6499L55.4167 103.47L55.5106 104.534L56.5472 104.793L70.6075 108.308L70.9716 108.399L71.3357 108.308L85.3703 104.793L86.4044 104.534L86.4998 103.472L87.9698 87.1092L88.1165 85.476L86.4767 85.475L44.1925 85.4481L41.0245 50.3957H100.861L99.9738 59.9871H53.1945H51.5529L51.7006 61.622L52.8655 74.5185L52.9888 75.8836H54.3594Z" stroke="white" stroke-width="3"/>
</g>
<defs>
<clipPath id="clip0">
<rect width="142" height="142" fill="white"/>
</clipPath>
</defs>
</svg>
