<svg width="142" height="142" viewBox="0 0 142 142" fill="none" xmlns="http://www.w3.org/2000/svg">
<path d="M1.5 1.5H140.5V140.5H1.5V1.5Z" stroke="white" stroke-width="3"/>
<path d="M125.02 74.6476L117.152 79.6995C116.161 78.1918 115.068 77.0013 113.78 76.1468C112.1 75.0325 110.219 74.576 108.078 74.576C105.803 74.576 103.825 75.3017 102.401 76.6193C100.972 77.9414 100.192 79.7769 100.192 81.7943C100.192 84.1903 100.97 86.0086 102.638 87.5265C104.184 88.9333 106.461 90.0439 109.301 91.2738L109.306 91.2761L112.641 92.7049C118.273 95.1199 122.462 97.4747 125.256 100.474C127.984 103.403 129.471 107.048 129.471 112.288C129.471 117.86 127.303 122.069 123.733 124.919C120.123 127.799 114.955 129.383 108.86 129.383C97.7047 129.383 90.4211 124.414 86.5585 117.802L94.9036 112.954C96.2267 114.899 97.7809 116.649 99.7279 117.979C102.103 119.602 104.977 120.541 108.551 120.541C111.55 120.541 114.154 119.793 116.049 118.387C117.973 116.959 119.112 114.881 119.112 112.46C119.112 111.108 118.842 109.906 118.281 108.827C117.723 107.756 116.92 106.884 115.963 106.133C114.121 104.686 111.504 103.542 108.545 102.248L108.499 102.227L108.489 102.223L105.153 100.792L105.15 100.79C100.405 98.769 96.6419 96.5645 94.0594 93.657C91.5227 90.8011 90.0359 87.1646 90.0359 82.0647C90.0359 77.4571 91.7835 73.4556 94.8591 70.5977C97.9393 67.7356 102.443 65.9387 108.078 65.9387C112.148 65.9387 115.529 66.6468 118.384 68.1992C120.902 69.5688 123.101 71.6441 125.02 74.6476ZM47.7137 114.173C48.5343 115.563 49.4414 116.924 50.5762 118.006C52.1511 119.508 54.1391 120.458 56.8383 120.458C59.1813 120.458 61.4685 120.007 63.1275 118.317C64.7728 116.641 65.4879 114.064 65.4879 110.573V66.7006H75.8314V110.753C75.8314 117.365 73.901 121.951 70.7746 124.895C67.6321 127.855 63.0669 129.359 57.4063 129.359C48.0287 129.359 42.4393 124.879 39.3566 119.232L47.7137 114.173Z" stroke="white" stroke-width="3"/>
</svg>
