<svg xmlns="http://www.w3.org/2000/svg" width="352" height="335" viewBox="0 0 352 335">
  <g fill="none" fill-rule="evenodd" transform="translate(2 1)">
    <path fill="#000" stroke="#c80000" stroke-width="2" d="m46.343529 271.241103h9v56h-9z" transform="scale(1 -1) rotate(72 462.714 0)"/>
    <path fill="#000" stroke="#c80000" stroke-width="2" d="m64.343529 253.241103h9v56h-9z" transform="scale(1 -1) rotate(73 448.92 0)"/>
    <path fill="#000" stroke="#c80000" stroke-width="2" d="m82.343529 235.241103h9v56h-9z" transform="scale(1 -1) rotate(73 442.593 0)"/>
    <path fill="#000" stroke="#c80000" stroke-width="2" d="m99.343529 216.241103h9v56h-9z" transform="scale(1 -1) rotate(73 433.916 0)"/>
    <path fill="#000" stroke="#c80000" stroke-width="2" d="m116.343529 198.241103h9v56h-9z" transform="scale(1 -1) rotate(73 426.59 0)"/>
    <path fill="#000" stroke="#c80000" stroke-width="2" d="m132.343529 180.241103h9v56h-9z" transform="scale(1 -1) rotate(73 418.265 0)"/>
    <path fill="#000" stroke="#c80000" stroke-width="2" d="m150.343529 163.241103h9v56h-9z" transform="scale(1 -1) rotate(73 413.291 0)"/>
    <path fill="#000" stroke="#c80000" stroke-width="2" d="m166.343529 145.241103h9v56h-9z" transform="scale(1 -1) rotate(73 404.965 0)"/>
    <path fill="#000" stroke="#c80000" stroke-width="2" d="m184.343529 128.241103h9v56h-9z" transform="scale(1 -1) rotate(73 399.991 0)"/>
    <path fill="#000" stroke="#c80000" stroke-width="2" d="m201.343529 110.241103h9v56h-9z" transform="scale(1 -1) rotate(73 392.666 0)"/>
    <path fill="#000" stroke="#c80000" stroke-width="2" d="m219.343529 92.241103h9v56h-9z" transform="scale(1 -1) rotate(73 386.34 0)"/>
    <path fill="#000" stroke="#c80000" stroke-width="2" d="m237.343529 75.241103h9v56h-9z" transform="scale(1 -1) rotate(73 381.366 0)"/>
    <path fill="#000" stroke="#c80000" stroke-width="2" d="m275.343529 42.241103h9v56h-9z" transform="scale(1 -1) rotate(73 374.769 0)"/>
    <path fill="#000" stroke="#c80000" stroke-width="2" d="m293.343529 25.241103h9v56h-9z" transform="scale(1 -1) rotate(73 369.795 0)"/>
    <path fill="#000" stroke="#c80000" stroke-width="2" d="m311.343529 7.241103h9v56h-9z" transform="scale(1 -1) rotate(73 363.47 0)"/>
    <path fill="#000" stroke="#c80000" stroke-width="2" d="m256.343529 58.241103h9v56h-9z" transform="scale(1 -1) rotate(73 377.392 0)"/>
    <path fill="#fff" stroke="#000" stroke-width="3" d="m175.011891 385c-4.527952 0-9.09324-3.249836-9.09324-5.765853s-.918651-315.5404891-.918651-319.7656216c0-6.3376987 4.591966-53.39253918 5.483939-56.03220802.21249-.62883626-5.483939 1.9134309-5.483939 0 0-1.81643467 3.027561-26.89809078 10.011891-29.43631738 6.984329 2.5382266 10.01189 27.61988271 10.01189 29.43631738 0 1.9134309-5.696429-.62883626-5.483938 0 .891973 2.63966884 5.483938 49.69450932 5.483938 56.03220802 0 4.2251325-.918651 317.2496046-.918651 319.7656216s-4.565287 5.765853-9.093239 5.765853z" transform="rotate(45 175.012 179.5)"/>
    <g stroke-width="2">
      <path fill="#000" stroke="#c80000" d="m158 154h9v56h-9z" transform="rotate(-45 162.5 182)"/>
      <path fill="#000" stroke="#c80000" d="m176 137h9v56h-9z" transform="rotate(-45 180.5 165)"/>
      <path fill="#000" stroke="#c80000" d="m193 119h9v56h-9z" transform="rotate(-45 197.5 147)"/>
      <path fill="#000" stroke="#c80000" d="m210 101h9v56h-9z" transform="rotate(-45 214.5 129)"/>
      <path fill="#000" stroke="#c80000" d="m228 83h9v56h-9z" transform="rotate(-45 232.5 111)"/>
      <path fill="#000" stroke="#c80000" d="m246 66h9v56h-9z" transform="rotate(-45 250.5 94)"/>
      <path fill="#000" stroke="#c80000" d="m266 50h9v56h-9z" transform="rotate(-45 270.5 78)"/>
      <path fill="#000" stroke="#c80000" d="m284 33h9v56h-9z" transform="rotate(-45 288.5 61)"/>
      <path fill="#000" stroke="#c80000" d="m303 16h9v56h-9z" transform="rotate(-45 307.5 44)"/>
      <path fill="#000" stroke="#c80000" d="m325.073368 2.12409713 2.437247 53.92618337h-9.087354l2.177051-53.98744296-2.715249-.02987128 4.99689-10.43457979 5.156303 10.37126534z" transform="rotate(-45 322.964 24.464)"/>
      <path fill="#000" stroke="#c80000" d="m37 280h9v56h-9z" transform="rotate(-45 41.5 308)"/>
      <path fill="#000" stroke="#c80000" d="m55 262h9v56h-9z" transform="rotate(-45 59.5 290)"/>
      <path fill="#000" stroke="#c80000" d="m73 244h9v56h-9z" transform="rotate(-45 77.5 272)"/>
      <path fill="#000" stroke="#c80000" d="m90 225h9v56h-9z" transform="rotate(-45 94.5 253)"/>
      <path fill="#000" stroke="#c80000" d="m108 207h9v56h-9z" transform="rotate(-45 112.5 235)"/>
      <path fill="#000" stroke="#c80000" d="m124 189h9v56h-9z" transform="rotate(-45 128.5 217)"/>
      <path fill="#000" stroke="#c80000" d="m142 172h9v56h-9z" transform="rotate(-45 146.5 200)"/>
      <g transform="matrix(-1 0 0 1 329 1)">
        <path fill="#fff" stroke="#c80000" d="m27.343529 271.241103h9v56h-9z" transform="scale(1 -1) rotate(72 443.714 0)"/>
        <path fill="#fff" stroke="#c80000" d="m45.343529 253.241103h9v56h-9z" transform="scale(1 -1) rotate(73 429.92 0)"/>
        <path fill="#fff" stroke="#c80000" d="m63.343529 235.241103h9v56h-9z" transform="scale(1 -1) rotate(73 423.593 0)"/>
        <path fill="#fff" stroke="#c80000" d="m80.343529 216.241103h9v56h-9z" transform="scale(1 -1) rotate(73 414.916 0)"/>
        <path fill="#fff" stroke="#c80000" d="m97.343529 198.241103h9v56h-9z" transform="scale(1 -1) rotate(73 407.59 0)"/>
        <path fill="#fff" stroke="#c80000" d="m113.343529 180.241103h9v56h-9z" transform="scale(1 -1) rotate(73 399.265 0)"/>
        <path fill="#fff" stroke="#c80000" d="m131.343529 163.241103h9v56h-9z" transform="scale(1 -1) rotate(73 394.291 0)"/>
        <path fill="#fff" stroke="#c80000" d="m147.343529 145.241103h9v56h-9z" transform="scale(1 -1) rotate(73 385.965 0)"/>
        <path fill="#fff" stroke="#c80000" d="m165.343529 128.241103h9v56h-9z" transform="scale(1 -1) rotate(73 380.991 0)"/>
        <path fill="#fff" stroke="#c80000" d="m182.343529 110.241103h9v56h-9z" transform="scale(1 -1) rotate(73 373.666 0)"/>
        <path fill="#fff" stroke="#c80000" d="m200.343529 92.241103h9v56h-9z" transform="scale(1 -1) rotate(73 367.34 0)"/>
        <path fill="#fff" stroke="#c80000" d="m218.343529 75.241103h9v56h-9z" transform="scale(1 -1) rotate(73 362.366 0)"/>
        <path fill="#fff" stroke="#c80000" d="m256.343529 42.241103h9v56h-9z" transform="scale(1 -1) rotate(73 355.769 0)"/>
        <path fill="#fff" stroke="#c80000" d="m274.343529 25.241103h9v56h-9z" transform="scale(1 -1) rotate(73 350.795 0)"/>
        <path fill="#fff" stroke="#c80000" d="m292.343529 7.241103h9v56h-9z" transform="scale(1 -1) rotate(73 344.47 0)"/>
        <path fill="#fff" stroke="#c80000" d="m237.343529 58.241103h9v56h-9z" transform="scale(1 -1) rotate(73 358.392 0)"/>
        <path fill="#000" stroke="#fff" d="m153.011891 384c-4.527952 0-9.09324-3.249836-9.09324-5.765853s-.918651-315.5404891-.918651-319.7656216c0-6.3376987 4.591966-53.39253918 5.483939-56.03220802.21249-.62883626-5.483939 1.9134309-5.483939 0 0-1.81643467 3.027561-26.89809078 10.011891-29.43631738 6.984329 2.5382266 10.01189 27.61988271 10.01189 29.43631738 0 1.9134309-5.696429-.62883626-5.483938 0 .891973 2.63966884 5.483938 49.69450932 5.483938 56.03220802 0 4.2251325-.918651 317.2496046-.918651 319.7656216s-4.565287 5.765853-9.093239 5.765853z" transform="scale(-1 1) rotate(-45 0 547.903)"/>
        <g fill="#fff" stroke="#c80000">
          <path d="m139 154h9v56h-9z" transform="rotate(-45 143.5 182)"/>
          <path d="m157 137h9v56h-9z" transform="rotate(-45 161.5 165)"/>
          <path d="m174 119h9v56h-9z" transform="rotate(-45 178.5 147)"/>
          <path d="m191 101h9v56h-9z" transform="rotate(-45 195.5 129)"/>
          <path d="m209 83h9v56h-9z" transform="rotate(-45 213.5 111)"/>
          <path d="m227 66h9v56h-9z" transform="rotate(-45 231.5 94)"/>
          <path d="m247 50h9v56h-9z" transform="rotate(-45 251.5 78)"/>
          <path d="m265 33h9v56h-9z" transform="rotate(-45 269.5 61)"/>
          <path d="m284 16h9v56h-9z" transform="rotate(-45 288.5 44)"/>
          <path d="m306.073368 2.12409713 2.437247 53.92618337h-9.087354l2.177051-53.98744296-2.715249-.02987128 4.99689-10.43457979 5.156303 10.37126534z" transform="rotate(-45 303.964 24.464)"/>
          <path d="m18 280h9v56h-9z" transform="rotate(-45 22.5 308)"/>
          <path d="m36 262h9v56h-9z" transform="rotate(-45 40.5 290)"/>
          <path d="m54 244h9v56h-9z" transform="rotate(-45 58.5 272)"/>
          <path d="m71 225h9v56h-9z" transform="rotate(-45 75.5 253)"/>
          <path d="m89 207h9v56h-9z" transform="rotate(-45 93.5 235)"/>
          <path d="m105 189h9v56h-9z" transform="rotate(-45 109.5 217)"/>
          <path d="m123 172h9v56h-9z" transform="rotate(-45 127.5 200)"/>
        </g>
      </g>
    </g>
  </g>
</svg>
