<svg width="101" height="142" viewBox="0 0 101 142" fill="none" xmlns="http://www.w3.org/2000/svg">
<g clip-path="url(#clip0)">
<path d="M46.8738 139.524L33.6365 131.693C35.3702 131.067 36.2596 130.655 38.5324 129.361L49.0924 135.622L49.0968 135.624C49.9269 136.113 51.0551 136.142 51.9142 135.62L93.6781 111.516L93.6888 111.51C94.5536 111.001 95.0617 110.044 95.0617 109.086V60.8574C95.0617 59.8416 94.5251 58.9355 93.6878 58.4238L93.6716 58.4139L93.6552 58.4045L51.9073 34.3192C51.905 34.3178 51.9028 34.3165 51.9005 34.3152C51.0496 33.818 49.9538 33.8181 49.103 34.3156C49.1009 34.3168 49.0989 34.318 49.0968 34.3192L7.37939 58.4225C6.46685 58.9361 5.96503 59.9092 5.96503 60.88V109.086C5.96503 110.023 6.46003 111.016 7.40207 111.511L18.8177 118.099L18.8575 118.122L18.8986 118.143C22.3334 119.854 25.3837 119.826 27.6532 118.533C29.8829 117.263 31.0886 114.913 31.0886 112.57V65.2756H35.8251V112.592C35.8251 116.468 34.7691 119.311 32.9945 121.179C31.2302 123.035 28.5696 124.122 24.9513 124.122C23.7475 124.122 22.8155 124.119 21.5549 123.832C20.2812 123.541 18.6116 122.945 16.0453 121.675L5.13765 115.387L5.13624 115.386C2.8922 114.096 1.5 111.677 1.5 109.063V60.8574C1.5 58.2644 2.89405 55.8237 5.13624 54.5344L5.13895 54.5328L46.8682 30.4226C49.0574 29.1909 51.9963 29.1945 54.156 30.4212C54.1574 30.422 54.1587 30.4227 54.1601 30.4235L95.9331 54.5555L95.9357 54.557C98.1797 55.8473 99.5719 58.2666 99.5719 60.88V109.086C99.5719 111.672 98.1836 114.096 95.9304 115.412C95.9295 115.413 95.9285 115.413 95.9276 115.414L54.1529 139.524C53.0449 140.163 51.7874 140.5 50.5133 140.5C49.2627 140.5 47.9856 140.163 46.881 139.528C46.8786 139.527 46.8762 139.525 46.8738 139.524ZM65.1108 82.8393L65.111 82.8394C71.5457 83.6905 75.9723 84.6902 78.7944 86.439C80.1609 87.2858 81.1185 88.2914 81.7498 89.5331C82.3879 90.7883 82.7417 92.3821 82.7417 94.4727C82.7417 98.5368 81.0755 101.65 77.9392 103.81C74.7308 106.02 69.868 107.304 63.4275 107.315C54.4793 107.314 49.3798 105.259 46.52 102.634C43.7717 100.111 42.8624 96.8476 42.809 93.6879H47.6673C48.1156 96.4963 49.0535 98.9804 51.5886 100.658C54.0704 102.3 57.8295 102.985 63.4075 102.985C67.856 102.985 71.3076 102.494 73.687 101.233C74.9106 100.585 75.8816 99.7171 76.5348 98.5937C77.1853 97.4749 77.4623 96.203 77.4623 94.8346C77.4623 94.0791 77.3934 93.1516 76.906 92.2373C76.4086 91.3042 75.5777 90.5685 74.4007 89.9691C72.1428 88.8191 68.1922 87.9683 61.361 87.302C55.6605 86.7376 51.3343 85.8393 48.4484 84.1093C47.04 83.265 46.0044 82.2385 45.3099 80.9684C44.6126 79.6932 44.209 78.0803 44.209 75.9911C44.209 72.2531 45.7533 69.3473 48.617 67.3217C51.5421 65.2525 55.9552 64.0314 61.7335 64.0314C68.2975 64.0314 72.9395 65.1755 76.0094 67.3257C78.9347 69.3746 80.6278 72.477 81.0671 76.9568H76.1982C75.4795 73.9381 74.1961 71.6559 71.7409 70.2178C69.3459 68.8148 66.0611 68.3607 61.7335 68.3607C56.815 68.3607 53.7216 69.205 51.8458 70.6648C49.8573 72.2122 49.511 74.2217 49.511 75.7196C49.511 76.5554 49.5926 77.5205 50.1373 78.4162C50.6911 79.3268 51.5808 79.9399 52.7123 80.4122C54.8853 81.3192 58.6798 81.9878 65.1108 82.8393Z" stroke="white" stroke-width="3"/>
<path d="M9.94238 1.38867H15.3125L22.3203 11.6846V1.38867H27.7412V20H22.3203L15.3506 9.78027V20H9.94238V1.38867Z" fill="white"/>
<path d="M30.8389 10.707C30.8389 7.66862 31.6852 5.30306 33.3779 3.61035C35.0706 1.91764 37.4277 1.07129 40.4492 1.07129C43.5469 1.07129 45.9336 1.90495 47.6094 3.57227C49.2852 5.23112 50.123 7.55859 50.123 10.5547C50.123 12.7298 49.7549 14.5156 49.0186 15.9121C48.2907 17.3001 47.2327 18.3835 45.8447 19.1621C44.4652 19.9323 42.7428 20.3174 40.6777 20.3174C38.5788 20.3174 36.8395 19.9831 35.46 19.3145C34.0889 18.6458 32.9759 17.5879 32.1211 16.1406C31.2663 14.6934 30.8389 12.8822 30.8389 10.707ZM36.5898 10.7324C36.5898 12.6113 36.9368 13.9613 37.6309 14.7822C38.3333 15.6032 39.2855 16.0137 40.4873 16.0137C41.723 16.0137 42.6794 15.6117 43.3564 14.8076C44.0335 14.0036 44.3721 12.5605 44.3721 10.4785C44.3721 8.72656 44.0166 7.44857 43.3057 6.64453C42.6032 5.83203 41.6468 5.42578 40.4365 5.42578C39.277 5.42578 38.346 5.83626 37.6436 6.65723C36.9411 7.47819 36.5898 8.83659 36.5898 10.7324Z" fill="white"/>
<path d="M53.2969 1.38867H61.8408C63.5251 1.38867 64.8835 1.61719 65.916 2.07422C66.957 2.53125 67.8161 3.18717 68.4932 4.04199C69.1702 4.89681 69.6611 5.89128 69.9658 7.02539C70.2705 8.15951 70.4229 9.36133 70.4229 10.6309C70.4229 12.6198 70.1943 14.1644 69.7373 15.2646C69.2887 16.3564 68.6624 17.2747 67.8584 18.0195C67.0544 18.7559 66.1911 19.2467 65.2686 19.4922C64.0075 19.8307 62.8649 20 61.8408 20H53.2969V1.38867ZM59.0479 5.60352V15.7725H60.457C61.6589 15.7725 62.5137 15.6413 63.0215 15.3789C63.5293 15.1081 63.9271 14.6426 64.2148 13.9824C64.5026 13.3138 64.6465 12.2347 64.6465 10.7451C64.6465 8.77311 64.3249 7.42318 63.6816 6.69531C63.0384 5.96745 61.972 5.60352 60.4824 5.60352H59.0479Z" fill="white"/>
<path d="M73.4443 1.38867H88.8564V5.3623H79.208V8.32031H88.1582V12.1162H79.208V15.7852H89.1357V20H73.4443V1.38867Z" fill="white"/>
</g>
<defs>
<clipPath id="clip0">
<rect width="101" height="142" fill="white"/>
</clipPath>
</defs>
</svg>
