<svg width="142" height="107" viewBox="0 0 142 107" fill="none" xmlns="http://www.w3.org/2000/svg">
<g clip-path="url(#clip0)">
<path d="M122.196 61.1756C117.245 61.2015 112.942 62.3939 109.338 64.1566C108.016 61.5385 106.694 59.2056 106.461 57.4947C106.202 55.4987 105.891 54.2804 106.202 51.8956C106.513 49.5108 107.913 46.115 107.887 45.8558C107.861 45.5966 107.576 44.3782 104.724 44.3523C101.873 44.3264 99.4103 44.8967 99.1252 45.6484C98.84 46.4002 98.2957 48.111 97.9328 49.8737C97.4403 52.4659 92.23 61.72 89.249 66.5674C88.2898 64.6751 87.4603 63.0161 87.2789 61.6941C87.0197 59.6981 86.7086 58.4797 87.0197 56.0949C87.3307 53.7101 88.7305 50.3144 88.7046 50.0551C88.6787 49.7959 88.3935 48.5776 85.5421 48.5517C82.6907 48.5257 80.2281 49.096 79.943 49.8478C79.6579 50.5995 79.3468 52.3622 78.7506 54.073C78.1544 55.7839 71.2333 71.2333 69.4187 75.2253C68.4855 77.2731 67.682 78.9062 67.1117 80.0208C67.1117 80.0208 67.0858 80.0986 67.008 80.2282C66.5155 81.1873 66.2303 81.7057 66.2303 81.7057C66.2303 81.7057 66.2303 81.7057 66.2303 81.7316C65.8415 82.4315 65.4268 83.0796 65.2194 83.0796C65.0639 83.0796 64.7787 81.2132 65.2712 78.6729C66.3081 73.307 68.7707 64.9602 68.7448 64.6751C68.7448 64.5195 69.2114 63.0679 67.1376 62.3162C65.1157 61.5644 64.3899 62.8087 64.2084 62.8087C64.027 62.8087 63.8974 63.2494 63.8974 63.2494C63.8974 63.2494 66.1526 53.8656 59.5943 53.8656C55.4987 53.8656 49.8477 58.3501 47.0482 62.3939C45.2855 63.3531 41.5268 65.4009 37.5089 67.6042C35.9795 68.4597 34.3983 69.3151 32.9207 70.1187C32.817 70.015 32.7134 69.8854 32.6097 69.7817C24.6776 61.3052 10.0058 55.3173 10.6279 43.9376C10.8612 39.7901 12.2869 28.9029 38.805 15.6827C60.6312 4.92516 77.9989 7.90617 81.0058 14.5162C85.3088 23.9518 71.6999 41.475 49.1478 44.0153C40.5418 44.9744 36.0314 41.6564 34.8908 40.4122C33.6984 39.1161 33.5169 39.0383 33.0763 39.2976C32.3505 39.6864 32.817 40.8529 33.0763 41.5268C33.7502 43.2895 36.5239 46.4001 41.2157 47.9295C45.3632 49.2775 55.4468 50.0292 67.656 45.3114C81.3169 40.0234 91.9967 25.3257 88.8601 13.0128C85.7236 0.518438 64.9861 -3.60314 45.3632 3.36984C33.6984 7.51734 21.0485 14.0497 11.9499 22.552C1.14052 32.6616 -0.570321 41.4491 0.12957 45.13C2.64399 58.1946 20.6597 66.697 27.866 72.996C27.5031 73.2034 27.1661 73.3848 26.8809 73.5403C23.2778 75.329 9.53921 82.5093 6.11752 90.1044C2.22924 98.7105 6.73965 104.88 9.72066 105.709C18.9748 108.276 28.4881 103.662 33.5947 96.0405C38.7013 88.4195 38.0792 78.5173 35.7203 73.981C35.6944 73.9292 35.6684 73.8773 35.6166 73.8255C36.5498 73.2811 37.5089 72.7108 38.4421 72.1665C40.2825 71.0778 42.0971 70.0668 43.6524 69.2373C42.771 71.648 42.123 74.5254 41.8119 78.6729C41.4231 83.5462 43.4191 89.8711 46.0372 92.3596C47.2037 93.4483 48.5775 93.4743 49.4589 93.4743C52.5177 93.4743 53.8915 90.9339 55.4209 87.927C57.2873 84.2461 58.9722 79.969 58.9722 79.969C58.9722 79.969 56.8725 91.5301 62.5754 91.5301C64.6491 91.5301 66.7488 88.8342 67.682 87.4604C67.682 87.4863 67.682 87.4863 67.682 87.4863C67.682 87.4863 67.7338 87.4085 67.8375 87.2271C68.0449 86.8901 68.1745 86.6827 68.1745 86.6827C68.1745 86.6827 68.1745 86.6568 68.1745 86.6309C69.004 85.1793 70.8704 81.8872 73.644 76.4177C77.2212 69.3669 80.6688 60.5535 80.6688 60.5535C80.6688 60.5535 80.9799 62.705 82.0427 66.2822C82.6648 68.3819 83.9609 70.6889 84.9978 72.9182C84.1683 74.0847 83.6498 74.7327 83.6498 74.7327C83.6498 74.7327 83.6498 74.7327 83.6758 74.7587C83.0018 75.64 82.276 76.5991 81.4724 77.5323C78.6469 80.9022 75.2771 84.7645 74.8105 85.8791C74.2661 87.2012 74.3957 88.1603 75.4326 88.9379C76.1843 89.5082 77.5323 89.586 78.9061 89.5082C81.4465 89.3268 83.2351 88.7046 84.1164 88.3158C85.4903 87.8233 87.0974 87.0716 88.6009 85.9569C91.3745 83.9091 93.0595 80.9799 92.9039 77.1176C92.8262 74.992 92.1263 72.8664 91.2709 70.8704C91.5301 70.5075 91.7634 70.1446 92.0226 69.7817C96.4034 63.379 99.7992 56.3541 99.7992 56.3541C99.7992 56.3541 100.11 58.5057 101.173 62.0829C101.691 63.8974 102.754 65.8675 103.687 67.7857C99.5659 71.1296 97.0255 75.0179 96.1182 77.5582C94.4852 82.276 95.7553 84.4016 98.1661 84.8941C99.2548 85.1274 100.81 84.609 101.951 84.1165C103.402 83.6499 105.113 82.8463 106.746 81.6539C109.52 79.6061 112.19 76.7547 112.034 72.8923C111.957 71.1296 111.49 69.3928 110.842 67.7079C114.341 66.2563 118.852 65.4527 124.606 66.1267C136.945 67.5783 139.382 75.2771 138.915 78.5173C138.449 81.7576 135.856 83.5203 135.001 84.0646C134.146 84.609 133.861 84.7904 133.938 85.1793C134.042 85.7495 134.457 85.7236 135.183 85.6199C136.193 85.4385 141.663 83.0018 141.896 77.0398C142.285 69.4188 135.027 61.0978 122.196 61.1756ZM27.0105 93.2669C22.9149 97.7254 17.2121 99.4104 14.7495 97.9847C12.1055 96.4553 13.1423 89.8711 18.1712 85.1533C21.23 82.276 25.1701 79.6061 27.7882 77.973C28.3844 77.6101 29.2658 77.0916 30.3285 76.4436C30.51 76.3399 30.6137 76.2881 30.6137 76.2881C30.8211 76.1584 31.0284 76.0288 31.2358 75.8992C33.0763 82.6389 31.3136 88.575 27.0105 93.2669ZM56.8207 72.996C55.395 76.4695 52.414 85.3607 50.5994 84.8682C49.0441 84.4534 48.085 77.7138 50.2884 71.0518C51.403 67.7079 53.7619 63.716 55.1358 62.1606C57.3651 59.6721 59.8276 58.8426 60.4238 59.8536C61.1756 61.1756 57.702 70.8185 56.8207 72.996ZM81.4206 84.7645C80.8243 85.0756 80.2541 85.2829 79.9948 85.1274C79.8134 85.0237 80.2541 84.609 80.2541 84.609C80.2541 84.609 83.3388 81.291 84.5571 79.7875C85.257 78.9062 86.0865 77.8693 86.9678 76.7028C86.9678 76.8065 86.9678 76.9361 86.9678 77.0398C86.9678 81.0058 83.1314 83.6758 81.4206 84.7645ZM100.395 80.4356C99.9547 80.1245 100.032 79.0876 101.51 75.8474C102.08 74.5772 103.428 72.4516 105.735 70.4038C105.994 71.2333 106.176 72.0369 106.15 72.7886C106.124 77.7915 102.547 79.6579 100.395 80.4356Z" fill="white"/>
</g>
<defs>
<clipPath id="clip0">
<rect width="142" height="106.435" fill="white"/>
</clipPath>
</defs>
</svg>
