<svg width="134" height="142" viewBox="0 0 134 142" fill="none" xmlns="http://www.w3.org/2000/svg">
<path d="M91.5378 51.6717L91.5467 51.6773L91.5557 51.6826C105.11 59.7883 113.973 75.1467 114.198 90.9284L114.198 90.941L114.199 90.9536C114.694 106.892 106.373 122.724 93.0205 131.393L93.0102 131.4L93.0001 131.406C78.14 141.403 57.5474 141.785 42.3774 132.287L42.3638 132.278L42.3501 132.27C26.8875 123.042 17.8434 104.391 20.1622 86.5183L20.1652 86.4957L20.1674 86.473C22.0338 67.6011 36.6438 50.9095 55.0364 46.3397L55.7786 46.1553C67.8116 43.2756 80.9981 45.1669 91.5378 51.6717Z" stroke="white" stroke-width="3"/>
<path d="M77.2443 75.6331C74.4963 79.7688 71.7441 83.9108 69.0259 88.0787L59.3138 88.0483C61.9188 85.8994 64.5086 83.7421 67.0956 81.5871C71.6449 77.7974 76.1857 74.0148 80.7852 70.298C79.6094 72.0735 78.4305 73.8479 77.2507 75.6234L77.2443 75.6331ZM56.7519 108.361C59.502 104.217 62.256 100.067 64.976 95.8954C68.2421 95.8955 71.4934 95.8974 74.7397 95.9212C71.5856 98.5035 68.467 101.102 65.3543 103.696C61.3122 107.065 57.2802 110.425 53.1938 113.729C54.3768 111.941 55.563 110.153 56.7499 108.364L56.7519 108.361Z" stroke="white" stroke-width="3"/>
<path d="M1.17969 21.0796L6.44092 20.75C6.55485 21.6045 6.78678 22.2555 7.13672 22.7031C7.70638 23.4274 8.52018 23.7896 9.57812 23.7896C10.3675 23.7896 10.9738 23.6064 11.397 23.2402C11.8283 22.8659 12.0439 22.4346 12.0439 21.9463C12.0439 21.4824 11.8405 21.0674 11.4336 20.7012C11.0267 20.335 10.0827 19.9891 8.60156 19.6636C6.17643 19.1183 4.4471 18.394 3.41357 17.4907C2.37191 16.5874 1.85107 15.4359 1.85107 14.0361C1.85107 13.1165 2.11556 12.2498 2.64453 11.436C3.18164 10.6141 3.98324 9.97119 5.04932 9.50732C6.12354 9.03532 7.59245 8.79932 9.45605 8.79932C11.7428 8.79932 13.4844 9.22656 14.6807 10.0811C15.8851 10.9274 16.6012 12.2783 16.8291 14.1338L11.6167 14.439C11.4784 13.6333 11.1854 13.0474 10.7378 12.6812C10.2983 12.3149 9.68799 12.1318 8.90674 12.1318C8.26383 12.1318 7.77962 12.2702 7.4541 12.5469C7.12858 12.8154 6.96582 13.145 6.96582 13.5356C6.96582 13.8205 7.1001 14.0768 7.36865 14.3047C7.62907 14.5407 8.24756 14.7604 9.22412 14.9639C11.6411 15.4847 13.3704 16.0137 14.4121 16.5508C15.4619 17.0798 16.2228 17.7389 16.6948 18.5283C17.175 19.3177 17.415 20.2007 17.415 21.1772C17.415 22.3247 17.0977 23.3826 16.4629 24.3511C15.8281 25.3195 14.9411 26.056 13.8018 26.5605C12.6624 27.057 11.2261 27.3052 9.49268 27.3052C6.44906 27.3052 4.34131 26.7192 3.16943 25.5474C1.99756 24.3755 1.33431 22.8862 1.17969 21.0796ZM19.5146 18.0645C19.5146 15.1429 20.3285 12.8683 21.9561 11.2407C23.5837 9.61312 25.8501 8.79932 28.7554 8.79932C31.7339 8.79932 34.0288 9.60091 35.6401 11.2041C37.2515 12.7992 38.0571 15.0371 38.0571 17.918C38.0571 20.0094 37.7031 21.7266 36.9951 23.0693C36.2952 24.404 35.278 25.4456 33.9434 26.1943C32.6169 26.9349 30.9608 27.3052 28.9751 27.3052C26.9569 27.3052 25.2845 26.9837 23.958 26.3408C22.6396 25.6979 21.5695 24.6807 20.7476 23.2891C19.9256 21.8975 19.5146 20.1559 19.5146 18.0645ZM25.0444 18.0889C25.0444 19.8955 25.3781 21.1935 26.0454 21.9829C26.7209 22.7723 27.6364 23.167 28.792 23.167C29.9801 23.167 30.8997 22.7804 31.5508 22.0073C32.2018 21.2342 32.5273 19.8467 32.5273 17.8447C32.5273 16.1602 32.1855 14.9313 31.502 14.1582C30.8265 13.377 29.9069 12.9863 28.7432 12.9863C27.6283 12.9863 26.7331 13.381 26.0576 14.1704C25.3822 14.9598 25.0444 16.266 25.0444 18.0889ZM52.9497 19.688L57.7959 21.1528C57.4704 22.5119 56.9577 23.6471 56.2578 24.5586C55.5579 25.4701 54.6872 26.1577 53.6455 26.6216C52.612 27.0854 51.2936 27.3174 49.6904 27.3174C47.7454 27.3174 46.1545 27.0366 44.9175 26.4751C43.6886 25.9054 42.6266 24.9085 41.7314 23.4844C40.8363 22.0602 40.3887 20.2373 40.3887 18.0156C40.3887 15.0534 41.174 12.7788 42.7446 11.1919C44.3234 9.59684 46.5532 8.79932 49.4341 8.79932C51.6883 8.79932 53.4583 9.25505 54.7441 10.1665C56.0381 11.078 56.9984 12.4777 57.625 14.3657L52.7422 15.4521C52.5713 14.9069 52.3923 14.5081 52.2051 14.2559C51.8958 13.8327 51.5174 13.5072 51.0698 13.2793C50.6222 13.0514 50.1217 12.9375 49.5684 12.9375C48.3151 12.9375 47.3548 13.4421 46.6875 14.4512C46.1829 15.1999 45.9307 16.3758 45.9307 17.979C45.9307 19.9647 46.2318 21.3278 46.834 22.0684C47.4362 22.8008 48.2826 23.167 49.373 23.167C50.431 23.167 51.2285 22.87 51.7656 22.2759C52.3109 21.6818 52.7056 20.8192 52.9497 19.688ZM60.5181 9.10449H66.0479V15.8672L71.8462 9.10449H79.1948L72.6763 15.855L79.4878 27H72.6763L68.9043 19.6392L66.0479 22.6299V27H60.5181V9.10449ZM81.3066 9.10449H96.126V12.9253H86.8486V15.7695H95.4546V19.4194H86.8486V22.9473H96.3945V27H81.3066V9.10449ZM98.1279 9.10449H114.937V13.5234H109.297V27H103.768V13.5234H98.1279V9.10449ZM116.487 21.0796L121.749 20.75C121.862 21.6045 122.094 22.2555 122.444 22.7031C123.014 23.4274 123.828 23.7896 124.886 23.7896C125.675 23.7896 126.281 23.6064 126.705 23.2402C127.136 22.8659 127.352 22.4346 127.352 21.9463C127.352 21.4824 127.148 21.0674 126.741 20.7012C126.334 20.335 125.39 19.9891 123.909 19.6636C121.484 19.1183 119.755 18.394 118.721 17.4907C117.68 16.5874 117.159 15.4359 117.159 14.0361C117.159 13.1165 117.423 12.2498 117.952 11.436C118.489 10.6141 119.291 9.97119 120.357 9.50732C121.431 9.03532 122.9 8.79932 124.764 8.79932C127.05 8.79932 128.792 9.22656 129.988 10.0811C131.193 10.9274 131.909 12.2783 132.137 14.1338L126.924 14.439C126.786 13.6333 126.493 13.0474 126.045 12.6812C125.606 12.3149 124.996 12.1318 124.214 12.1318C123.571 12.1318 123.087 12.2702 122.762 12.5469C122.436 12.8154 122.273 13.145 122.273 13.5356C122.273 13.8205 122.408 14.0768 122.676 14.3047C122.937 14.5407 123.555 14.7604 124.532 14.9639C126.949 15.4847 128.678 16.0137 129.72 16.5508C130.77 17.0798 131.53 17.7389 132.002 18.5283C132.483 19.3177 132.723 20.2007 132.723 21.1772C132.723 22.3247 132.405 23.3826 131.771 24.3511C131.136 25.3195 130.249 26.056 129.109 26.5605C127.97 27.057 126.534 27.3052 124.8 27.3052C121.757 27.3052 119.649 26.7192 118.477 25.5474C117.305 24.3755 116.642 22.8862 116.487 21.0796Z" fill="white"/>
</svg>
